<svg width="24" height="20" fill="none" xmlns="http://www.w3.org/2000/svg"><path fill-rule="evenodd" clip-rule="evenodd" d="M8.019 13.195h-.001a.673.673 0 00-.682.66c0 .363.307.659.684.659h12.395c.378 0 .684.295.684.66 0 .364-.306.66-.684.66H8.02c-1.131 0-2.051-.889-2.051-1.98 0-.812.51-1.511 1.236-1.816L4.737 1.32H1.184A.672.672 0 01.5.66C.5.296.806 0 1.184 0h4.101c.32 0 .598.215.668.517l.488 2.122H23.15c.214 0 .416.097.546.262.129.166.17.38.111.579l-2.734 9.236a.68.68 0 01-.658.478H8.02zm1.231 2.638c1.149 0 2.083.935 2.083 2.084A2.086 2.086 0 019.25 20a2.086 2.086 0 01-2.083-2.083c0-1.15.934-2.084 2.083-2.084zm10 0c1.149 0 2.083.935 2.083 2.084A2.086 2.086 0 0119.25 20a2.086 2.086 0 01-2.083-2.083c0-1.15.934-2.084 2.083-2.084zm.65-3.958l2.344-7.917h-15.5l1.824 7.917H19.9zm-9.956 6.042a.695.695 0 10-1.39.001.695.695 0 001.39-.001zm9.306-.695a.695.695 0 010 1.39.695.695 0 010-1.39z" fill="#fff"/></svg>